Coordinates
version=1
nRows=97
nColumns=11
inDegrees=no

Units are S.I. units (second, meters, Newtons, ...)
If the header above contains a line with 'inDegrees', this indicates whether rotational values are in degrees (yes) or radians (no).

endheader
time	pelvis_tilt	pelvis_tx	pelvis_ty	hip_flexion_r	knee_angle_r	ankle_angle_r	hip_flexion_l	knee_angle_l	ankle_angle_l	lumbar_extension
0.01	-0.191368	-0.0676945	0.904928	0.254752	-0.195066	0.321459	0.659446	-0.53827	0.176096	0
0.02	-0.191135	-0.0674104	0.904981	0.254089	-0.194962	0.320614	0.658693	-0.537456	0.176002	0
0.03	-0.190745	-0.0671234	0.905042	0.25312	-0.194656	0.320235	0.65862	-0.538731	0.175885	0
0.04	-0.190788	-0.0670448	0.905057	0.253126	-0.194883	0.320036	0.659071	-0.539366	0.175218	0
0.05	-0.190722	-0.0669593	0.905085	0.253003	-0.195112	0.319978	0.658936	-0.539176	0.175178	0
0.06	-0.190624	-0.0669147	0.905092	0.252802	-0.194952	0.320506	0.658632	-0.538934	0.175259	0
0.07	-0.190783	-0.0669039	0.905103	0.252878	-0.194749	0.320371	0.658746	-0.538894	0.175195	0
0.08	-0.190733	-0.0669245	0.905086	0.253084	-0.195256	0.319979	0.658705	-0.538854	0.175039	0
0.09	-0.190566	-0.0670001	0.905052	0.2536	-0.196368	0.320515	0.658579	-0.538883	0.174581	0
0.1	-0.190366	-0.0670647	0.905004	0.254053	-0.197466	0.321585	0.65827	-0.538584	0.175207	0
0.11	-0.189974	-0.0670481	0.904987	0.253657	-0.19737	0.322461	0.658001	-0.538595	0.176232	0
0.12	-0.189357	-0.0670965	0.905012	0.25392	-0.199464	0.323426	0.657626	-0.539213	0.175538	0
0.13	-0.188843	-0.0671431	0.905023	0.253941	-0.200668	0.323944	0.65753	-0.540332	0.174877	0
0.14	-0.18836	-0.0672126	0.904979	0.253208	-0.200024	0.324023	0.657237	-0.540528	0.174948	0
0.15	-0.187329	-0.0672315	0.904921	0.251303	-0.197999	0.323803	0.656752	-0.541122	0.176074	0
0.16	-0.18657	-0.0673296	0.904929	0.250434	-0.19755	0.323559	0.656559	-0.541755	0.178072	0
0.17	-0.185797	-0.0674518	0.904941	0.250215	-0.198681	0.323963	0.656234	-0.542622	0.178699	0
0.18	-0.185038	-0.0675308	0.904866	0.250169	-0.200137	0.325661	0.656073	-0.543955	0.17819	0
0.19	-0.184712	-0.0676424	0.904839	0.250702	-0.201736	0.32624	0.65601	-0.544364	0.17758	0
0.2	-0.184607	-0.0678522	0.90483	0.251242	-0.202487	0.326266	0.655846	-0.543614	0.177536	0
0.21	-0.184107	-0.0680491	0.904849	0.251098	-0.202768	0.325963	0.655429	-0.543057	0.177553	0
0.22	-0.182995	-0.06828	0.904863	0.250629	-0.203405	0.32585	0.654776	-0.543372	0.176576	0
0.23	-0.182021	-0.0685623	0.904813	0.250491	-0.204764	0.326246	0.654564	-0.544119	0.177351	0
0.24	-0.181591	-0.068774	0.904767	0.250578	-0.205414	0.327234	0.654907	-0.544824	0.178529	0
0.25	-0.181622	-0.0689882	0.904751	0.251064	-0.205876	0.327899	0.65505	-0.544663	0.177771	0
0.26	-0.181524	-0.0691559	0.90477	0.251151	-0.205812	0.327542	0.654454	-0.54375	0.175768	0
0.27	-0.181484	-0.069331	0.904838	0.250962	-0.204995	0.326466	0.654091	-0.543069	0.174592	0
0.28	-0.181235	-0.069544	0.904813	0.250947	-0.205137	0.326801	0.654443	-0.543736	0.174831	0
0.29	-0.180792	-0.0698258	0.904745	0.250659	-0.20483	0.327087	0.65486	-0.544481	0.175407	0
0.3	-0.180699	-0.0701812	0.9046	0.251096	-0.204871	0.327355	0.655413	-0.544755	0.174734	0
0.31	-0.180805	-0.0705951	0.904463	0.25137	-0.20417	0.327102	0.656123	-0.544977	0.174367	0
0.32	-0.180462	-0.070748	0.90444	0.251096	-0.204173	0.327086	0.656592	-0.546122	0.174362	0
0.33	-0.180555	-0.0710181	0.904371	0.252102	-0.205481	0.327848	0.657559	-0.546943	0.173948	0
0.34	-0.180816	-0.0712867	0.904258	0.253635	-0.207159	0.328769	0.658783	-0.547903	0.174966	0
0.35	-0.180555	-0.0714227	0.904205	0.254361	-0.208818	0.329279	0.659206	-0.549944	0.176083	0
0.36	-0.1798	-0.0714836	0.904257	0.254924	-0.211434	0.329127	0.65825	-0.550867	0.176126	0
0.37	-0.179363	-0.0717093	0.904225	0.255594	-0.213835	0.329797	0.657416	-0.551283	0.175883	0
0.38	-0.179221	-0.0719145	0.904156	0.256069	-0.215899	0.330239	0.656621	-0.551479	0.178263	0
0.39	-0.178824	-0.0719091	0.904035	0.255835	-0.218209	0.332024	0.655859	-0.552496	0.180236	0
0.4	-0.178756	-0.0720077	0.903879	0.256062	-0.220606	0.334478	0.655649	-0.55347	0.18232	0
0.41	-0.178574	-0.0720747	0.903806	0.255121	-0.22091	0.336148	0.655703	-0.555327	0.185703	0
0.42	-0.178565	-0.0723938	0.903799	0.252164	-0.216976	0.335597	0.65508	-0.555637	0.188209	0
0.43	-0.178935	-0.0726623	0.903753	0.247949	-0.209239	0.333237	0.655028	-0.556351	0.190022	0
0.44	-0.179201	-0.0728226	0.903615	0.245938	-0.206149	0.332942	0.655826	-0.559282	0.191986	0
0.45	-0.179597	-0.0729906	0.903534	0.245339	-0.205721	0.333773	0.656238	-0.560904	0.193261	0
0.46	-0.179975	-0.0730718	0.903449	0.246075	-0.207865	0.335091	0.656982	-0.562482	0.195407	0
0.47	-0.180265	-0.0732577	0.903302	0.246411	-0.209786	0.336445	0.657476	-0.564092	0.197422	0
0.48	-0.180219	-0.0733833	0.903221	0.245025	-0.209406	0.336551	0.657477	-0.56636	0.19841	0
0.49	-0.180226	-0.0734298	0.903102	0.241831	-0.205074	0.336861	0.656844	-0.567573	0.198127	0
0.5	-0.180744	-0.0735622	0.903	0.239719	-0.201561	0.336749	0.655888	-0.567062	0.195669	0
0.51	-0.181652	-0.0738253	0.902922	0.240241	-0.202397	0.337453	0.655137	-0.566346	0.191623	0
0.52	-0.182592	-0.0741347	0.902864	0.241128	-0.204445	0.338586	0.655943	-0.567803	0.190838	0
0.53	-0.183311	-0.0743628	0.902822	0.240252	-0.203843	0.337874	0.657299	-0.57046	0.192312	0
0.54	-0.18442	-0.0747326	0.902727	0.239613	-0.201992	0.336778	0.659327	-0.573311	0.19463	0
0.55	-0.186481	-0.0753338	0.902527	0.240978	-0.201124	0.336486	0.662999	-0.577502	0.191898	0
0.56	-0.188964	-0.0759078	0.902295	0.24285	-0.200496	0.335927	0.668023	-0.5848	0.185271	0
0.57	-0.19124	-0.0764388	0.902139	0.243962	-0.199161	0.335497	0.673668	-0.592882	0.180912	0
0.58	-0.193571	-0.0771936	0.902198	0.245545	-0.198653	0.335288	0.679806	-0.600162	0.179193	0
0.59	-0.196574	-0.0782131	0.902254	0.249233	-0.200725	0.334946	0.687394	-0.608606	0.173066	0
0.6	-0.200159	-0.0792133	0.902232	0.253124	-0.202222	0.335133	0.695395	-0.617808	0.165811	0
0.61	-0.203694	-0.0800752	0.902214	0.256378	-0.203049	0.336792	0.70389	-0.627951	0.157621	0
0.62	-0.207509	-0.0810783	0.902284	0.259618	-0.203305	0.336265	0.713175	-0.638556	0.147536	0
0.63	-0.211416	-0.0823099	0.902267	0.263852	-0.204311	0.334425	0.722762	-0.648375	0.139183	0
0.64	-0.214795	-0.0835014	0.902253	0.267604	-0.204845	0.331224	0.732386	-0.658802	0.133179	0
0.65	-0.217809	-0.0843003	0.902354	0.269312	-0.20217	0.327724	0.740669	-0.666921	0.132626	0
0.66	-0.198457	-0.0815728	0.904053	0.24075	-0.201825	0.331523	0.717867	-0.674285	0.135017	0
0.67	-0.201123	-0.0825113	0.903929	0.243105	-0.202604	0.331256	0.72668	-0.683246	0.135779	0
0.68	-0.203734	-0.0837276	0.903818	0.24606	-0.203753	0.330356	0.734739	-0.688838	0.135212	0
0.69	-0.205648	-0.0848017	0.903866	0.246835	-0.202033	0.328498	0.741578	-0.691778	0.134341	0
0.7	-0.207374	-0.0857162	0.903929	0.246859	-0.199589	0.327442	0.749462	-0.695535	0.134119	0
0.71	-0.208103	-0.0864531	0.904014	0.246549	-0.199688	0.326046	0.755691	-0.699267	0.129401	0
0.72	-0.208083	-0.0871228	0.904078	0.245547	-0.199744	0.323448	0.759169	-0.699538	0.122145	0
0.73	-0.208017	-0.0878906	0.904179	0.244668	-0.199878	0.323371	0.762136	-0.69754	0.12309	0
0.74	-0.207963	-0.0886286	0.904267	0.243363	-0.200305	0.32658	0.765309	-0.694558	0.127906	0
0.75	-0.20739	-0.0891926	0.904305	0.242181	-0.20222	0.330367	0.767571	-0.68927	0.127391	0
0.76	-0.205964	-0.0896728	0.904265	0.240111	-0.203533	0.332386	0.769811	-0.685466	0.124365	0
0.77	-0.20544	-0.09051	0.90414	0.239847	-0.205393	0.331797	0.773817	-0.68211	0.125275	0
0.78	-0.223895	-0.0944787	0.902732	0.261093	-0.199211	0.324534	0.800839	-0.673928	0.132567	0
0.79	-0.198758	-0.0911187	0.904583	0.227041	-0.200332	0.32884	0.769113	-0.664158	0.131702	0
0.8	-0.196582	-0.0918609	0.904489	0.224977	-0.203955	0.32989	0.769564	-0.658003	0.130889	0
0.81	-0.193425	-0.0922355	0.904389	0.220897	-0.207093	0.335254	0.766958	-0.648262	0.132119	0
0.82	-0.190267	-0.0926986	0.904342	0.216078	-0.207614	0.338491	0.765254	-0.638796	0.133955	0
0.83	-0.187478	-0.0930779	0.904261	0.210427	-0.205421	0.340215	0.764294	-0.630308	0.133504	0
0.84	-0.184128	-0.0933538	0.904174	0.205383	-0.206414	0.34164	0.763388	-0.6239	0.135328	0
0.85	-0.180488	-0.0936432	0.904139	0.200382	-0.208549	0.342304	0.761711	-0.615427	0.140237	0
0.86	-0.177157	-0.0939798	0.904121	0.194669	-0.207974	0.344405	0.759248	-0.604756	0.140136	0
0.87	-0.173552	-0.0941182	0.903955	0.187441	-0.205045	0.348703	0.755703	-0.593841	0.138613	0
0.88	-0.169524	-0.0943265	0.903698	0.181336	-0.205388	0.354273	0.753071	-0.586374	0.141503	0
0.89	-0.165233	-0.0943516	0.903603	0.17516	-0.207574	0.355732	0.747782	-0.575454	0.149003	0
0.9	-0.16123	-0.0941395	0.903446	0.166615	-0.20472	0.356628	0.741091	-0.562041	0.149345	0
0.91	-0.159201	-0.0943798	0.903232	0.160767	-0.201654	0.356732	0.736406	-0.549085	0.147793	0
0.92	-0.174834	-0.0971754	0.901612	0.177427	-0.195705	0.353667	0.755033	-0.536947	0.148464	0
0.93	-0.152355	-0.0941656	0.903008	0.146032	-0.197547	0.357979	0.722045	-0.524197	0.147342	0
0.94	-0.169824	-0.0969153	0.901493	0.165533	-0.193086	0.352591	0.740491	-0.509395	0.144106	0
0.95	-0.166055	-0.0960745	0.901486	0.156148	-0.18916	0.354376	0.729469	-0.495027	0.14632	0
0.96	-0.162012	-0.0951904	0.90129	0.146195	-0.184995	0.356482	0.719587	-0.486181	0.147321	0
0.97	-0.158641	-0.0945164	0.901059	0.136879	-0.180801	0.35697	0.710214	-0.478796	0.145765	0
